<svg xmlns="http://www.w3.org/2000/svg" viewBox="0 0 160 100" width="160" height="100" fill="none" role="img" aria-label="KY4R">
<title>KY4R</title>
<style>@media(prefers-color-scheme:dark){svg:root{--muted-foreground:oklch(0.708 0 0);--muted:oklch(0.269 0 0);--foreground:oklch(0.985 0 0);--destructive:oklch(0.704 0.191 22.216)}}</style>
<path class="track" stroke="var(--muted-foreground, oklch(0.556 0 0))" stroke-width="5" stroke-linecap="round" stroke-linejoin="round" d="M54.8 36.4C54.2 34.1 53.9 32.2 53.8 30.1C53.6 28 53.6 25.6 53.8 23.6C54 21.5 54.4 19.3 54.9 17.6C55.5 15.9 56.1 14.5 57 13.4C57.9 12.3 58.6 11.5 60.2 11C61.9 10.5 65.3 10.9 67 10.5C68.7 10 69.7 8.5 70.6 8.1C71.5 7.7 71.7 8 72.3 8.1C72.8 8.3 73.5 8.8 73.7 9.1C73.9 9.5 73.9 9.8 73.4 10.4C72.8 11 72.1 11.7 70.4 12.8C68.6 13.9 64.7 15.6 63 17C61.3 18.4 60.7 19.9 60.2 21C59.6 22.2 59.6 22.9 59.6 23.8C59.5 24.7 59.6 25.4 60 26.5C60.5 27.6 61.6 29.7 62.3 30.5C62.9 31.4 63.5 31.6 64 31.8C64.5 31.9 64.8 31.7 65.1 31.5C65.4 31.2 65.6 31.8 65.7 30.4C65.8 28.9 65.5 24.7 65.7 22.8C65.8 21 66 20.5 66.6 19.4C67.1 18.3 68.1 17.1 69.1 16.3C70.1 15.5 71.5 14.9 72.7 14.6C73.9 14.3 75.1 14.3 76.2 14.4C77.3 14.6 77.1 13.9 79.4 15.6C81.7 17.3 87.9 22.6 90 24.6C92.1 26.5 91.8 26.1 92 27.3C92.3 28.5 91.4 30.5 91.7 31.8C92 33.1 93.6 34.3 93.7 35.2C93.9 36 93.3 36.5 92.9 36.7C92.4 37 92.5 38.2 90.8 36.5C89.1 34.8 85.1 29.2 82.5 26.5C79.9 23.7 76.8 21.4 75.1 20.2C73.4 19.1 73.2 19.5 72.3 19.6C71.4 19.7 70.3 20.4 69.7 21C69.2 21.7 69.1 22.5 69.1 23.3C69.2 24 68.7 24.2 70 25.5C71.4 26.8 75.9 29.6 77.5 31.1C79 32.5 79.3 32.7 79.5 34.1C79.8 35.6 78.9 38.2 78.9 39.8C79 41.3 79.7 42.4 79.9 43.4C80 44.4 80.6 43.9 79.8 45.8C79 47.7 75.9 53.1 75.2 54.7C74.5 56.4 75.4 55.4 75.6 55.6C75.8 55.8 76 55.9 76.5 55.8C76.9 55.7 77.5 55.7 78.4 54.9C79.4 54.1 81.1 53.1 82.1 51C83.1 48.9 83.7 43.9 84.3 42.2C85 40.4 84.6 40.2 85.9 40.3C87.2 40.5 90.8 42.2 92 42.9C93.1 43.5 92.6 43.3 92.9 44.1C93.2 44.9 93 47 93.7 47.7C94.4 48.4 96.4 48 97.3 48.4C98.3 48.8 99.1 49.3 99.6 50.2C100.2 51.1 100.6 52.7 100.5 53.8C100.3 55 100.2 55.7 98.5 57.1C96.9 58.5 93.6 61 90.8 62.2C88 63.4 83.6 63.6 81.7 64.3C79.8 65 80 65.7 79.5 66.5C78.9 67.2 78.5 65.7 78.7 68.8C78.9 71.9 80.1 81.9 80.6 85.1C81.1 88.3 81.3 87.2 81.8 88.1C82.3 89 82.8 89.7 83.8 90.4C84.9 91 86.6 91.8 87.9 91.9C89.3 92.1 90.9 91.7 91.9 91.3C92.9 90.8 93.4 90.3 94 89.1C94.7 87.9 95.2 85.3 95.7 84.2C96.3 83.2 96.9 83.1 97.6 82.7C98.2 82.4 98.6 82.3 99.6 82.3C100.6 82.3 102.6 82.9 103.6 82.7C104.7 82.4 105.6 81.5 106 80.8C106.5 80.1 106.5 79.8 106.3 78.7C106.2 77.6 105.4 75.7 105.2 74.1C105 72.4 105.4 70.1 105.3 68.8C105.1 67.6 105 67.3 104.5 66.9C104 66.5 103.8 65.6 102.1 66.5C100.4 67.4 96.3 70.9 94.1 72.1C91.9 73.3 91.9 73.7 88.8 73.8C85.8 73.9 78.7 73 75.8 72.6C72.9 72.1 72.3 71.7 71.2 71.1C70.1 70.5 69.8 70 69.2 69.2C68.7 68.3 68.3 67.2 68.1 66.2C67.8 65.3 67.7 64.6 67.8 63.5C68 62.5 68.7 60.9 68.8 60C68.9 59.2 69.9 60.2 68.5 58.3C67 56.4 61.7 51.1 59.9 48.6C58 46.2 58.1 45.6 57.2 43.6C56.4 41.5 55.4 38.6 54.8 36.4Z"/>
<path class="cut-out" stroke="var(--muted, oklch(0.97 0 0))" stroke-width="4" stroke-linecap="round" d="M71.9 11.2L73.5 18"/>
<path class="cut-out" stroke="var(--muted, oklch(0.97 0 0))" stroke-width="4" stroke-linecap="round" d="M76.4 52L80.5 57.7"/>
<path class="cut-out" stroke="var(--muted, oklch(0.97 0 0))" stroke-width="4" stroke-linecap="round" d="M96.1 79.6L99.1 85.9"/>
<path class="cut-out" stroke="var(--muted, oklch(0.97 0 0))" stroke-width="4.4" stroke-linecap="round" d="M51.4 37.3L58.2 35.5"/>
<path class="split" stroke="var(--foreground, oklch(0.145 0 0))" stroke-width="1.8" stroke-linecap="round" d="M71.8 10.7L73.6 18.5"/>
<path class="split" stroke="var(--foreground, oklch(0.145 0 0))" stroke-width="1.8" stroke-linecap="round" d="M76.1 51.6L80.8 58.1"/>
<path class="split" stroke="var(--foreground, oklch(0.145 0 0))" stroke-width="1.8" stroke-linecap="round" d="M95.9 79.1L99.3 86.4"/>
<path class="start-finish" stroke="var(--destructive, oklch(0.577 0.245 27.325))" stroke-width="2.2" stroke-linecap="round" d="M50.4 37.5L59.2 35.3"/>
</svg>
