<svg xmlns="http://www.w3.org/2000/svg" viewBox="0 0 160 100" width="160" height="100" fill="none" role="img" aria-label="RO2">
<title>RO2</title>
<style>@media(prefers-color-scheme:dark){svg:root{--muted-foreground:oklch(0.708 0 0);--muted:oklch(0.269 0 0);--foreground:oklch(0.985 0 0);--destructive:oklch(0.704 0.191 22.216)}}</style>
<path class="track" stroke="var(--muted-foreground, oklch(0.556 0 0))" stroke-width="5" stroke-linecap="round" stroke-linejoin="round" d="M118.5 24.7C120.4 29.1 123.9 40.3 125.3 44.7C126.6 49.1 126.5 48.8 126.7 51.2C126.9 53.6 127 56.1 126.3 59C125.7 61.9 124.1 65.8 122.7 68.5C121.3 71.1 119.9 72.9 118.1 74.8C116.3 76.6 117 76.7 111.8 79.4C106.6 82.1 92 89 86.9 91.1C81.9 93.2 83.1 92.1 81.6 91.9C80.1 91.7 79 90.9 78.1 90C77.2 89 77.4 89.5 76 86.2C74.7 82.9 71 73.3 70 70C68.9 66.7 69.6 67.7 69.7 66.6C69.7 65.5 69.8 64.5 70.3 63.4C70.8 62.3 71.7 61 72.6 60.1C73.4 59.2 74.3 58.7 75.4 58.2C76.4 57.8 76.4 57.6 78.8 57.3C81.2 56.9 86.9 57 89.8 56.2C92.7 55.5 94.8 53.9 96.3 52.8C97.8 51.7 98.3 50.7 98.9 49.7C99.6 48.8 99.9 48.2 100.2 47.1C100.5 46 100.8 44.8 100.9 43.3C101 41.7 101 39.6 100.9 38C100.7 36.5 100.4 35 100 33.7C99.7 32.5 99.2 31.6 98.7 30.7C98.1 29.7 97.6 28.9 96.7 27.9C95.9 26.9 95.2 26 93.4 24.8C91.6 23.6 88.9 21.9 86.1 20.9C83.2 19.9 79.8 19.4 76.2 19C72.7 18.6 67.8 18.2 64.9 18.4C62 18.5 60.7 18.9 58.8 19.9C56.8 20.9 54.5 23.1 53.2 24.5C51.9 25.8 51.5 27 50.9 28.1C50.4 29.2 50.1 29.7 49.9 31.1C49.6 32.5 49.3 34.5 49.5 36.5C49.7 38.5 49.2 38.7 50.8 43.1C52.5 47.5 57.6 57.9 59.6 62.9C61.7 67.9 62.3 70.6 63 73.2C63.6 75.7 63.7 77.1 63.6 78.5C63.4 79.8 62.8 80.6 62.2 81.3C61.6 82 60.8 82.3 60.1 82.5C59.4 82.7 58.8 82.7 58 82.5C57.2 82.3 56 81.8 55.3 81.2C54.5 80.6 54.1 80.2 53.4 79.1C52.8 78 53 79.2 51.3 74.8C49.5 70.4 45.9 60.2 43 52.5C40.2 44.9 35.7 33.6 34.1 28.7C32.5 23.7 33.1 24.5 33.2 22.9C33.2 21.3 33.7 20 34.2 18.9C34.6 17.8 35.2 17.1 36.1 16.2C37 15.3 38.1 14.4 39.6 13.6C41.1 12.7 43 11.8 44.9 11.1C46.8 10.4 48.5 9.8 51.1 9.3C53.7 8.9 56.8 8.5 60.5 8.3C64.2 8.1 69.4 8 73.4 8C77.4 8.1 80.6 8 84.4 8.7C88.2 9.4 92.1 11.2 96.2 12.2C100.4 13.2 106.2 13.8 109.2 14.9C112.2 15.9 112.6 16.8 114.2 18.4C115.7 20.1 116.7 20.4 118.5 24.7Z"/>
<path class="cut-out" stroke="var(--muted, oklch(0.97 0 0))" stroke-width="4" stroke-linecap="round" d="M121.7 23.2L115.4 26.3"/>
<path class="cut-out" stroke="var(--muted, oklch(0.97 0 0))" stroke-width="4" stroke-linecap="round" d="M75.9 22.5L76.6 15.5"/>
<path class="cut-out" stroke="var(--muted, oklch(0.97 0 0))" stroke-width="4.4" stroke-linecap="round" d="M39.7 53.8L46.3 51.3"/>
<path class="split" stroke="var(--foreground, oklch(0.145 0 0))" stroke-width="1.8" stroke-linecap="round" d="M122.1 23L114.9 26.5"/>
<path class="split" stroke="var(--foreground, oklch(0.145 0 0))" stroke-width="1.8" stroke-linecap="round" d="M75.8 23L76.6 15"/>
<path class="start-finish" stroke="var(--destructive, oklch(0.577 0.245 27.325))" stroke-width="2.2" stroke-linecap="round" d="M38.8 54.1L47.2 51"/>
</svg>
