<svg xmlns="http://www.w3.org/2000/svg" viewBox="0 0 160 100" width="160" height="100" fill="none" role="img" aria-label="WE4R">
<title>WE4R</title>
<style>@media(prefers-color-scheme:dark){svg:root{--muted-foreground:oklch(0.708 0 0);--muted:oklch(0.269 0 0);--foreground:oklch(0.985 0 0);--destructive:oklch(0.704 0.191 22.216)}}</style>
<path class="track" stroke="var(--muted-foreground, oklch(0.556 0 0))" stroke-width="5" stroke-linecap="round" stroke-linejoin="round" d="M49.9 19.7C59 18.9 80.7 17.2 92.3 16.6C103.8 16 112.8 16.1 119.3 16.2C125.7 16.3 127.4 16.4 131 17.1C134.6 17.8 138.3 19.2 140.8 20.3C143.3 21.5 144.3 22.2 146 24C147.6 25.8 149.9 29 150.9 31.1C151.9 33.1 151.9 34.5 152 36.2C152.1 37.8 151.7 39.8 151.4 41C151.1 42.1 151.1 42.2 150.4 43C149.7 43.9 148.4 45.3 147.1 46.1C145.9 46.8 144.3 47.3 142.8 47.5C141.3 47.7 140.8 47.9 138 47.3C135.3 46.7 130.2 44.7 126.3 43.8C122.4 42.9 117.9 42.1 114.6 41.9C111.2 41.7 109 42.1 106.2 42.6C103.4 43.2 101.6 43.4 97.9 45C94.1 46.6 86.8 50.3 83.4 52.2C80.1 54.1 80.3 54 77.6 56.4C74.9 58.9 69.6 64.7 67.2 66.7C64.8 68.8 64.2 68.3 63.2 68.7C62.2 69.1 62.2 69.1 61.2 69C60.2 69 58.2 68.7 57.3 68.4C56.3 68.2 56.2 68.1 55.5 67.4C54.7 66.7 53.2 65 52.6 64.1C52 63.2 52 63.1 51.8 62C51.6 60.8 51.4 58.4 51.3 57.2C51.3 56 51.3 55.9 51.7 54.7C52 53.5 52.7 51.7 53.5 49.9C54.3 48.1 55.9 45.4 56.5 43.8C57.1 42.2 57.1 41.3 57 40.1C56.9 38.9 56.6 37.6 56 36.5C55.5 35.4 54.6 34.4 53.5 33.6C52.5 32.8 51.1 32.2 49.8 31.9C48.5 31.6 47.3 31.4 45.5 31.8C43.6 32.1 40.6 33 38.8 33.8C37.1 34.6 36.2 34.9 34.9 36.4C33.6 37.9 31.9 40.4 31.1 42.8C30.3 45.2 30.1 48.5 30 51C29.9 53.4 29.8 54 30.3 57.4C30.9 60.8 32.7 68.2 33.2 71.2C33.7 74.3 33.4 74.5 33.4 75.5C33.4 76.6 33.4 76.6 32.9 77.5C32.4 78.4 31.2 80.1 30.6 80.9C29.9 81.7 29.8 81.7 28.9 82.2C27.9 82.7 26.2 83.5 24.8 83.7C23.4 83.9 21.6 83.7 20.6 83.5C19.5 83.3 19.7 83.6 18.6 82.6C17.4 81.7 15 80 13.5 77.8C12.1 75.5 10.6 71.8 9.7 69.2C8.8 66.5 8.4 64.4 8.1 61.8C7.9 59.3 8 56.7 8.4 54.1C8.8 51.5 9.5 48.8 10.5 46.2C11.6 43.7 13 41.1 14.6 38.8C16.2 36.4 18.1 34.2 20.1 32.2C22.1 30.2 24.1 28.3 26.4 26.8C28.7 25.2 31.9 23.7 33.9 22.8C35.8 21.9 35.3 22 38 21.4C40.7 20.9 40.9 20.5 49.9 19.7Z"/>
<path class="cut-out" stroke="var(--muted, oklch(0.97 0 0))" stroke-width="4" stroke-linecap="round" d="M50.4 48.3L56.6 51.5"/>
<path class="cut-out" stroke="var(--muted, oklch(0.97 0 0))" stroke-width="4.4" stroke-linecap="round" d="M49.5 16.2L50.3 23.2"/>
<path class="split" stroke="var(--foreground, oklch(0.145 0 0))" stroke-width="1.8" stroke-linecap="round" d="M50 48.1L57.1 51.8"/>
<path class="start-finish" stroke="var(--destructive, oklch(0.577 0.245 27.325))" stroke-width="2.2" stroke-linecap="round" d="M49.4 15.2L50.5 24.2"/>
</svg>
